<svg width="113" height="59" viewBox="0 0 113 59" fill="none" xmlns="http://www.w3.org/2000/svg">
<path d="M74.6226 21.8948C74.6226 9.66445 83.7157 0.968262 94.8696 0.968262C105.827 0.968262 112.98 8.51287 112.98 18.82C112.98 27.5565 106.825 34.0466 98.1289 34.0466C90.2548 34.0466 84.7804 28.502 84.7804 21.0164C84.7804 14.2676 89.5985 9.53462 95.3546 9.53462C100.193 9.53462 102.97 12.2891 102.97 16.1882C102.97 18.7014 101.373 21.2719 97.8387 21.8562C99.1487 23.1256 100.534 24.3148 101.987 25.4174C101.987 25.4174 99.4234 27.2131 99.4152 27.2185C97.8212 26.2081 94.02 22.9206 92.4332 20.6495L94.8759 18.9391C97.1755 19.583 99.4192 18.3726 99.4192 16.2028C99.4192 14.3099 97.9684 13.0623 95.3191 13.0623C91.7936 13.0623 88.8658 16.1608 88.8658 20.7887C88.8658 26.0398 92.6716 29.7304 98.0603 29.7304C103.694 29.7304 108.037 25.4936 108.037 18.9703C108.037 11.6785 103.119 6.0302 95.1091 6.0302C86.9095 6.0302 80.5149 12.6304 80.5149 21.3444C80.4859 24.1294 81.0759 26.8861 82.2422 29.4153L77.153 32.9785C75.468 29.5278 74.6021 25.7348 74.6226 21.8948Z" fill="url(#paint0_linear_1517_14292)"/>
<path d="M5.09589 43.4218H5.11171C5.89063 41.6523 7.18069 40.5057 9.409 40.5057C10.4752 40.4926 11.5268 40.7538 12.4629 41.2642L10.3434 45.1787C9.79511 44.9292 9.19663 44.8097 8.59457 44.8294C8.11357 44.8077 7.63413 44.8985 7.19434 45.0945C6.75454 45.2905 6.3665 45.5863 6.06102 45.9585C5.37473 46.7937 5.12752 47.6358 5.12752 50.042V58.295H0.797852V40.9252H5.09589V43.4218Z" fill="url(#paint1_linear_1517_14292)"/>
<path fill-rule="evenodd" clip-rule="evenodd" d="M20.617 58.713C14.8606 58.713 11.563 55.4409 11.563 49.6927C11.563 45.0141 14.1884 40.5041 19.8764 40.5041C25.2621 40.5041 27.0588 44.4757 27.0588 48.851C27.0588 49.7624 27.0304 50.5227 26.9581 51.3176H15.986C16.4429 53.6319 18.0232 54.8158 20.8621 54.8481C22.3417 54.8852 23.8078 54.5586 25.1317 53.8968L26.6124 57.5372C24.7235 58.3613 22.6773 58.7626 20.617 58.713ZM22.8108 48.141C22.8108 46.0198 21.7683 44.1346 19.5844 44.1346C17.6723 44.1346 16.3089 45.4765 15.9385 48.141H22.8108Z" fill="url(#paint2_linear_1517_14292)"/>
<path d="M80.5615 40.9257V37.7776L84.8843 34.7502V40.9257H89.4536V44.5924H84.8843V52.7638C84.8843 54.056 85.4407 54.7599 86.727 54.7599C87.3818 54.7475 88.0225 54.5673 88.5879 54.2367L90.0392 57.9059C88.8281 58.4532 87.5124 58.7305 86.1835 58.7185C84.3672 58.7185 82.9102 58.3212 81.9651 57.3497C81.0179 56.3764 80.5615 55.0635 80.5615 53.0976V44.5924H74.6225V52.8099C74.6225 54.056 75.179 54.7599 76.4653 54.7599C77.1201 54.7475 77.7609 54.5673 78.3262 54.2367L79.7777 57.9059C78.5665 58.4532 77.2508 58.7305 75.9218 58.7185C74.1054 58.7185 72.6486 58.3212 71.7036 57.3497C70.7565 56.3764 70.3 55.0635 70.3 53.0976V44.5924H67.6296V40.9257H70.3V37.777L74.6225 34.7502V40.9257H80.5615Z" fill="url(#paint3_linear_1517_14292)"/>
<path d="M65.8911 58.2933H61.5471L61.5471 40.9257H65.8911V58.2933Z" fill="url(#paint4_linear_1517_14292)"/>
<path d="M61.4621 37.7697C61.1638 37.3232 61.0046 36.7984 61.0047 36.2615C61.0048 35.5417 61.2908 34.8513 61.7998 34.3423C62.3088 33.8333 62.9992 33.5474 63.7191 33.5473C64.2559 33.5473 64.7808 33.7065 65.2272 34.0047C65.6736 34.303 66.0215 34.727 66.227 35.223C66.4324 35.719 66.4862 36.2648 66.3814 36.7913C66.2767 37.3179 66.0181 37.8016 65.6385 38.1812C65.2589 38.5608 64.7752 38.8194 64.2486 38.9241C63.722 39.0288 63.1762 38.975 62.6802 38.7695C62.1842 38.564 61.7603 38.2161 61.4621 37.7697Z" fill="url(#paint5_linear_1517_14292)"/>
<path d="M44.4683 58.293V35.7998L48.8302 32.7455V47.2862L54.2943 40.9257H59.8996L52.9516 48.6147L59.8137 58.293H54.3416L48.8302 50.1758V58.293H44.4683Z" fill="url(#paint6_linear_1517_14292)"/>
<path d="M37.4228 58.713C39.2191 58.7566 41.0014 58.3869 42.6321 57.6323L41.1624 53.917C40.0895 54.5404 38.8642 54.853 37.6237 54.8195C34.88 54.8106 32.9881 53.1162 32.9881 49.6083C32.9881 46.3738 34.6838 44.3981 37.6621 44.3981C38.8892 44.3752 40.0993 44.6871 41.1624 45.3004L42.6692 41.6012C41.0007 40.8368 39.1802 40.4616 37.3453 40.5041C31.9725 40.5041 28.6216 44.2406 28.6216 49.6927C28.6216 55.4267 32.1362 58.713 37.4228 58.713Z" fill="url(#paint7_linear_1517_14292)"/>
<defs>
<linearGradient id="paint0_linear_1517_14292" x1="115.715" y1="0.897788" x2="28.6491" y2="86.9109" gradientUnits="userSpaceOnUse">
<stop stop-color="#FF593D"/>
<stop offset="0.510417" stop-color="#FF007F"/>
<stop offset="0.999667" stop-color="#C41974"/>
</linearGradient>
<linearGradient id="paint1_linear_1517_14292" x1="115.715" y1="0.897788" x2="28.6491" y2="86.9109" gradientUnits="userSpaceOnUse">
<stop stop-color="#FF593D"/>
<stop offset="0.510417" stop-color="#FF007F"/>
<stop offset="0.999667" stop-color="#C41974"/>
</linearGradient>
<linearGradient id="paint2_linear_1517_14292" x1="115.715" y1="0.897788" x2="28.6491" y2="86.9109" gradientUnits="userSpaceOnUse">
<stop stop-color="#FF593D"/>
<stop offset="0.510417" stop-color="#FF007F"/>
<stop offset="0.999667" stop-color="#C41974"/>
</linearGradient>
<linearGradient id="paint3_linear_1517_14292" x1="115.715" y1="0.897788" x2="28.6491" y2="86.9109" gradientUnits="userSpaceOnUse">
<stop stop-color="#FF593D"/>
<stop offset="0.510417" stop-color="#FF007F"/>
<stop offset="0.999667" stop-color="#C41974"/>
</linearGradient>
<linearGradient id="paint4_linear_1517_14292" x1="115.715" y1="0.897788" x2="28.6491" y2="86.9109" gradientUnits="userSpaceOnUse">
<stop stop-color="#FF593D"/>
<stop offset="0.510417" stop-color="#FF007F"/>
<stop offset="0.999667" stop-color="#C41974"/>
</linearGradient>
<linearGradient id="paint5_linear_1517_14292" x1="115.715" y1="0.897788" x2="28.6491" y2="86.9109" gradientUnits="userSpaceOnUse">
<stop stop-color="#FF593D"/>
<stop offset="0.510417" stop-color="#FF007F"/>
<stop offset="0.999667" stop-color="#C41974"/>
</linearGradient>
<linearGradient id="paint6_linear_1517_14292" x1="115.715" y1="0.897788" x2="28.6491" y2="86.9109" gradientUnits="userSpaceOnUse">
<stop stop-color="#FF593D"/>
<stop offset="0.510417" stop-color="#FF007F"/>
<stop offset="0.999667" stop-color="#C41974"/>
</linearGradient>
<linearGradient id="paint7_linear_1517_14292" x1="115.715" y1="0.897788" x2="28.6491" y2="86.9109" gradientUnits="userSpaceOnUse">
<stop stop-color="#FF593D"/>
<stop offset="0.510417" stop-color="#FF007F"/>
<stop offset="0.999667" stop-color="#C41974"/>
</linearGradient>
</defs>
</svg>
